<?xml version="1.0" encoding="UTF-8" standalone="no"?>
<svg
   xmlns:dc="http://purl.org/dc/elements/1.1/"
   xmlns:cc="http://creativecommons.org/ns#"
   xmlns:rdf="http://www.w3.org/1999/02/22-rdf-syntax-ns#"
   xmlns:svg="http://www.w3.org/2000/svg"
   xmlns="http://www.w3.org/2000/svg"
   xmlns:sodipodi="http://sodipodi.sourceforge.net/DTD/sodipodi-0.dtd"
   xmlns:inkscape="http://www.inkscape.org/namespaces/inkscape"
   id="svg4136"
   version="1.1"
   inkscape:version="0.91 r13725"
   sodipodi:docname="icon2.svg"
   width="256"
   height="256">
  <metadata
     id="metadata4146">
    <rdf:RDF>
      <cc:Work
         rdf:about="">
        <dc:format>image/svg+xml</dc:format>
        <dc:type
           rdf:resource="http://purl.org/dc/dcmitype/StillImage" />
        <dc:title></dc:title>
      </cc:Work>
    </rdf:RDF>
  </metadata>
  <defs
     id="defs4144" />
  <sodipodi:namedview
     pagecolor="#ffffff"
     bordercolor="#666666"
     borderopacity="1"
     objecttolerance="10"
     gridtolerance="10"
     guidetolerance="10"
     inkscape:pageopacity="0"
     inkscape:pageshadow="2"
     inkscape:window-width="3840"
     inkscape:window-height="2098"
     id="namedview4142"
     showgrid="false"
     width="256px"
     inkscape:zoom="4.8275"
     inkscape:cx="61.441148"
     inkscape:cy="106.21917"
     inkscape:window-x="-8"
     inkscape:window-y="-8"
     inkscape:window-maximized="1"
     inkscape:current-layer="svg4136" />
  <g
     id="g4138"
     style="fill:#000000;fill-opacity:1;stroke:none;stroke-opacity:1"
     transform="scale(4,4)">
    <path
       d="m 24,41 c 0,0.553 0.447,1 1,1 0.553,0 1,-0.447 1,-1 0,-0.553 -0.447,-1 -1,-1 -0.553,0 -1,0.447 -1,1 z m -9,-1 c -0.552,0 -1,0.447 -1,1 0,0.553 0.448,1 1,1 l 6,0 c 0.552,0 1,-0.447 1,-1 0,-0.553 -0.448,-1 -1,-1 l -6,0 z m 15,-5 c 0,-0.553 -0.448,-1 -1,-1 l -14,0 c -0.552,0 -1,0.447 -1,1 0,0.553 0.448,1 1,1 l 14,0 c 0.552,0 1,-0.447 1,-1 z M 44.469,28.41 C 43.735,27.555 42.659,27 41.446,27 l -2,0 0,2 2,0 c 1.103,0 2,0.897 2,2.07 l 0,13.93 c 0,1.103 -0.897,2 -2,2 l -2,0 0,2 2,0 c 1.207,0 2.277,-0.549 3.012,-1.408 C 45.194,48.446 46.26,49 47.445,49 l 2,0 0,-2 -2,0 c -1.057,0 -1.973,-0.928 -2,-2.07 l 0,-13.905 C 45.472,29.927 46.388,29 47.445,29 l 2,0 0,-2 -2,0 c -1.179,0 -2.239,0.548 -2.976,1.41 z M 29,42 l 5,0 c 0.553,0 1,-0.447 1,-1 0,-0.553 -0.447,-1 -1,-1 l -5,0 c -0.552,0 -1,0.447 -1,1 0,0.553 0.448,1 1,1 z M 60,27 60,13.29 C 60,10.675 57.873,8.548 55.259,8.548 l -32.997,0 C 21.915,8.251 21.629,8.005 21.448,7.848 20.44,6.991 17.62,6.68 15.97,6.68 l -11.23,0 C 2.126,6.68 0,8.807 0,11.42 l 0,41.16 c 0,2.614 2.126,4.74 4.74,4.74 l 50.52,0 c 2.614,0 4.74,-2.126 4.74,-4.74 l 0,-3.58 4,0 0,-22 -4,0 z M 55.259,10.548 c 1.512,0 2.741,1.23 2.741,2.742 l 0,5.488 C 57.986,18.768 57.971,18.761 57.957,18.752 57.883,18.7 57.802,18.659 57.725,18.611 57.568,18.515 57.408,18.424 57.239,18.347 57.136,18.299 57.033,18.258 56.926,18.218 56.765,18.157 56.601,18.108 56.432,18.064 56.323,18.036 56.216,18.005 56.104,17.985 55.88,17.944 55.651,17.923 55.417,17.916 55.363,17.914 55.313,17.9 55.26,17.9 l -18.71,0 c -1.143,0 -2.633,-0.391 -3.929,-0.974 -0.777,-0.351 -1.485,-0.771 -2.005,-1.217 l -5.528,-4.738 -0.493,-0.423 30.664,0 z M 62,47 54.45,47 c -0.553,0 -1,0.447 -1,1 0,0.553 0.447,1 1,1 l 3.55,0 0,3.58 c 0,1.511 -1.229,2.74 -2.74,2.74 l -50.52,0 C 3.229,55.32 2,54.091 2,52.58 L 2,11.42 C 2,9.909 3.229,8.68 4.74,8.68 l 11.23,0 c 2.119,0 3.859,0.453 4.167,0.681 l 2.799,2.399 6.375,5.47 c 0.622,0.531 1.428,1.017 2.306,1.428 1.597,0.751 3.443,1.244 4.932,1.244 l 18.711,0 c 0.928,0 1.747,0.466 2.243,1.174 0.31,0.448 0.497,0.988 0.497,1.574 l 0,4.35 -3.55,0 c -0.553,0 -1,0.448 -1,1 0,0.552 0.447,1 1,1 L 62,29 62,47 Z M 35.45,28 c 0,-0.552 -0.447,-1 -1,-1 L 9,27 9,49 34.45,49 c 0.553,0 1,-0.447 1,-1 0,-0.553 -0.447,-1 -1,-1 L 11,47 11,29 34.45,29 c 0.553,0 1,-0.448 1,-1 z"
       id="path4140"
       style="fill:#000000;fill-opacity:1;stroke:none;stroke-opacity:1"
       inkscape:connector-curvature="0" />
  </g>
</svg>
